<svg width="160" height="53" viewBox="0 0 160 53" fill="none" xmlns="http://www.w3.org/2000/svg">
<g clip-path="url(#clip0)">
<path d="M147.259 5.01797e-05H12.7486C12.2583 5.01797e-05 11.7739 5.01798e-05 11.2849 0.00270018C10.8755 0.00535018 10.4694 0.0130484 10.0562 0.0195277C9.15832 0.0299976 8.26261 0.108271 7.37678 0.253668C6.49221 0.402231 5.63534 0.682314 4.83516 1.08444C4.03596 1.48998 3.30571 2.01692 2.6709 2.64617C2.03276 3.27364 1.50082 3.99892 1.09553 4.79411C0.689129 5.58772 0.407328 6.43814 0.259861 7.31601C0.110992 8.19277 0.0308843 9.07964 0.0202567 9.96866C0.00784864 10.3749 0.0065383 10.7825 0 11.1888V41.8152C0.0065383 42.2266 0.00784864 42.6252 0.0202567 43.0367C0.0308876 43.9257 0.110995 44.8125 0.259861 45.6892C0.40692 46.5676 0.688739 47.4185 1.09553 48.2124C1.50063 49.005 2.03265 49.7274 2.6709 50.3514C3.30331 50.9834 4.03403 51.5107 4.83516 51.9132C5.63533 52.3164 6.49211 52.5981 7.37678 52.749C8.26276 52.8932 9.15838 52.9715 10.0562 52.9832C10.4694 52.9922 10.8755 52.9974 11.2849 52.9974C11.7739 53.0001 12.2583 53.0001 12.7486 53.0001H147.259C147.739 53.0001 148.227 53.0001 148.708 52.9974C149.115 52.9974 149.533 52.9922 149.941 52.9832C150.837 52.9721 151.731 52.8938 152.615 52.749C153.502 52.597 154.362 52.3154 155.166 51.9132C155.967 51.5105 156.697 50.9832 157.329 50.3514C157.965 49.7249 158.498 49.0031 158.908 48.2124C159.312 47.4179 159.591 46.5671 159.736 45.6892C159.885 44.8124 159.968 43.9258 159.984 43.0367C159.99 42.6252 159.99 42.2266 159.99 41.8152C160 41.3338 160 40.8551 160 40.3659V12.6354C160 12.1502 160 11.6688 159.99 11.1888C159.99 10.7825 159.99 10.3749 159.984 9.96861C159.968 9.07951 159.885 8.19284 159.736 7.31596C159.591 6.4386 159.312 5.58824 158.908 4.79406C158.083 3.20019 156.774 1.90278 155.166 1.08432C154.362 0.683177 153.502 0.403169 152.615 0.253549C151.731 0.107511 150.837 0.0292105 149.941 0.0193422C149.533 0.0128762 149.115 0.00511168 148.708 0.00252793C148.227 -0.00012207 147.739 -0.00012207 147.259 -0.00012207V5.01797e-05Z" fill="#A6A6A6"/>
<path d="M11.2913 51.8406C10.884 51.8406 10.4864 51.8354 10.0822 51.8264C9.24493 51.8156 8.40959 51.7434 7.58305 51.6103C6.81235 51.4788 6.06574 51.2341 5.36786 50.8844C4.67638 50.5375 4.0457 50.0827 3.49997 49.5374C2.94634 48.9985 2.48542 48.3734 2.13547 47.687C1.78166 46.9961 1.53681 46.2556 1.40943 45.4912C1.27188 44.6699 1.19746 43.8394 1.18681 43.0068C1.17833 42.7274 1.16724 41.797 1.16724 41.797V11.1887C1.16724 11.1887 1.17906 10.2726 1.18688 10.0035C1.19707 9.17228 1.27106 8.34305 1.4082 7.52298C1.53581 6.75649 1.78086 6.01383 2.13485 5.3207C2.48351 4.63476 2.94188 4.00925 3.49217 3.46841C4.04185 2.92244 4.67455 2.46529 5.36721 2.11364C6.06348 1.76501 6.80868 1.52206 7.57782 1.39292C8.40707 1.25852 9.24532 1.18586 10.0855 1.17554L11.292 1.15936H148.701L149.922 1.17619C150.755 1.18599 151.585 1.25801 152.407 1.39162C153.184 1.52238 153.937 1.76703 154.641 2.11752C156.029 2.82619 157.158 3.94738 157.87 5.32393C158.219 6.01228 158.46 6.74888 158.586 7.50875C158.725 8.33555 158.802 9.17129 158.818 10.0093C158.822 10.3845 158.822 10.7876 158.822 11.1887C158.833 11.6856 158.833 12.1585 158.833 12.6354V40.3658C158.833 40.8472 158.833 41.3169 158.822 41.7905C158.822 42.2214 158.822 42.6161 158.817 43.0223C158.801 43.8454 158.725 44.6662 158.588 45.4782C158.464 46.2481 158.22 46.9944 157.866 47.691C157.514 48.3699 157.056 48.9896 156.508 49.527C155.962 50.0753 155.33 50.5328 154.637 50.8818C153.935 51.2343 153.183 51.4799 152.407 51.6103C151.581 51.7441 150.745 51.8163 149.908 51.8264C149.516 51.8354 149.106 51.8406 148.708 51.8406L147.259 51.8433L11.2913 51.8406Z" fill="black"/>
<path d="M33.1179 26.8984C33.1323 25.7925 33.4287 24.7082 33.9796 23.7463C34.5305 22.7844 35.318 21.9762 36.2688 21.397C35.6648 20.5421 34.868 19.8386 33.9416 19.3424C33.0152 18.8461 31.9849 18.5707 30.9323 18.538C28.687 18.3045 26.5104 19.8694 25.3662 19.8694C24.1999 19.8694 22.4383 18.5612 20.5414 18.5999C19.3144 18.6392 18.1186 18.9928 17.0704 19.6262C16.0223 20.2596 15.1577 21.1513 14.5607 22.2143C11.9748 26.651 13.9037 33.1714 16.3808 36.7576C17.6201 38.5137 19.0685 40.4753 20.9638 40.4058C22.8184 40.3295 23.511 39.2338 25.7497 39.2338C27.9676 39.2338 28.6174 40.4058 30.5511 40.3615C32.5412 40.3295 33.7951 38.5976 34.9909 36.8249C35.8814 35.5736 36.5666 34.1907 37.0211 32.7273C35.865 32.2428 34.8783 31.4316 34.1842 30.3951C33.4901 29.3585 33.1193 28.1425 33.1179 26.8984Z" fill="white"/>
<path d="M29.4654 16.1795C30.5505 14.8886 31.0851 13.2295 30.9556 11.5544C29.2979 11.7269 27.7666 12.5121 26.6668 13.7534C26.1291 14.3598 25.7173 15.0653 25.4549 15.8295C25.1925 16.5937 25.0847 17.4017 25.1376 18.2072C25.9668 18.2157 26.7871 18.0376 27.5367 17.6863C28.2864 17.3351 28.9458 16.8199 29.4654 16.1795Z" fill="white"/>
<path d="M56.5615 35.96H50.2325L48.7127 40.4073H46.032L52.0266 23.9535H54.8118L60.8064 40.4073H58.08L56.5615 35.96ZM50.888 33.9078H55.9047L53.4317 26.6902H53.3624L50.888 33.9078Z" fill="white"/>
<path d="M73.7529 34.4099C73.7529 38.1378 71.7395 40.5329 68.701 40.5329C67.9313 40.5728 67.1658 40.3971 66.4922 40.0259C65.8186 39.6547 65.2641 39.103 64.8922 38.4341H64.8347V44.3759H62.3499V28.4112H64.7551V30.4064H64.8008C65.1898 29.7407 65.7537 29.1919 66.4324 28.8184C67.1112 28.445 67.8794 28.2609 68.6553 28.2857C71.7277 28.2857 73.7529 30.6924 73.7529 34.4099ZM71.1989 34.4099C71.1989 31.9812 69.9323 30.3844 67.9998 30.3844C66.1013 30.3844 64.8243 32.0148 64.8243 34.4099C64.8243 36.827 66.1013 38.4457 67.9998 38.4457C69.9323 38.4457 71.1989 36.8606 71.1989 34.4099Z" fill="white"/>
<path d="M87.0766 34.4099C87.0766 38.1378 85.0632 40.5328 82.0247 40.5328C81.255 40.5727 80.4896 40.397 79.816 40.0259C79.1423 39.6547 78.5878 39.103 78.2159 38.434H78.1584V44.3758H75.6736V28.4112H78.0787V30.4064H78.1244C78.5135 29.7407 79.0774 29.1919 79.7561 28.8184C80.4348 28.445 81.2031 28.2609 81.979 28.2857C85.0514 28.2857 87.0766 30.6924 87.0766 34.4099ZM84.5226 34.4099C84.5226 31.9812 83.256 30.3844 81.3235 30.3844C79.425 30.3844 78.148 32.0148 78.148 34.4099C78.148 36.827 79.425 38.4457 81.3235 38.4457C83.256 38.4457 84.5226 36.8606 84.5226 34.4099H84.5226Z" fill="white"/>
<path d="M95.8825 35.8229C96.0666 37.4546 97.6661 38.5259 99.8519 38.5259C101.946 38.5259 103.453 37.4545 103.453 35.9833C103.453 34.7061 102.544 33.9414 100.393 33.4174L98.2407 32.9037C95.1918 32.1739 93.7763 30.7609 93.7763 28.468C93.7763 25.6291 96.2729 23.6791 99.818 23.6791C103.326 23.6791 105.732 25.6291 105.813 28.468H103.304C103.154 26.826 101.784 25.8349 99.7827 25.8349C97.781 25.8349 96.4113 26.8377 96.4113 28.2972C96.4113 29.4605 97.2861 30.145 99.4262 30.669L101.256 31.1141C104.662 31.9125 106.078 33.2686 106.078 35.6753C106.078 38.7536 103.603 40.6815 99.6678 40.6815C95.9856 40.6815 93.4995 38.7988 93.3389 35.8228L95.8825 35.8229Z" fill="white"/>
<path d="M111.44 25.5723V28.4112H113.742V30.3612H111.44V36.9745C111.44 38.0019 111.901 38.4807 112.913 38.4807C113.186 38.4759 113.459 38.4569 113.731 38.4237V40.362C113.276 40.4463 112.813 40.4844 112.35 40.4759C109.9 40.4759 108.944 39.5637 108.944 37.2371V30.3612H107.184V28.4112H108.944V25.5723H111.44Z" fill="white"/>
<path d="M115.076 34.4099C115.076 30.6355 117.319 28.2637 120.817 28.2637C124.327 28.2637 126.56 30.6354 126.56 34.4099C126.56 38.1947 124.339 40.5561 120.817 40.5561C117.297 40.5561 115.076 38.1947 115.076 34.4099ZM124.028 34.4099C124.028 31.8207 122.83 30.2926 120.817 30.2926C118.804 30.2926 117.607 31.8324 117.607 34.4099C117.607 37.0094 118.804 38.526 120.817 38.526C122.83 38.526 124.028 37.0094 124.028 34.4099H124.028Z" fill="white"/>
<path d="M128.608 28.4112H130.978V30.453H131.036C131.196 29.8153 131.573 29.2517 132.103 28.857C132.633 28.4623 133.285 28.2606 133.947 28.2857C134.234 28.2847 134.519 28.3155 134.799 28.3775V30.6808C134.437 30.5713 134.06 30.521 133.682 30.532C133.321 30.5174 132.961 30.5805 132.627 30.7168C132.293 30.8532 131.993 31.0595 131.747 31.3217C131.501 31.5839 131.315 31.8958 131.202 32.2359C131.089 32.5759 131.052 32.9362 131.093 33.2919V40.4073H128.608L128.608 28.4112Z" fill="white"/>
<path d="M146.255 36.8839C145.921 39.0616 143.781 40.5561 141.043 40.5561C137.521 40.5561 135.335 38.218 135.335 34.4668C135.335 30.7041 137.533 28.2637 140.938 28.2637C144.288 28.2637 146.394 30.5436 146.394 34.1809V35.0245H137.844V35.1733C137.804 35.6148 137.86 36.0596 138.007 36.4781C138.155 36.8966 138.39 37.2792 138.698 37.6006C139.006 37.9219 139.38 38.1747 139.794 38.3421C140.208 38.5094 140.653 38.5875 141.1 38.5712C141.687 38.6257 142.277 38.491 142.78 38.187C143.284 37.883 143.675 37.426 143.896 36.8839L146.255 36.8839ZM137.856 33.3036H143.908C143.93 32.9066 143.869 32.5094 143.729 32.1368C143.589 31.7642 143.373 31.4243 143.094 31.1384C142.815 30.8525 142.48 30.6268 142.109 30.4754C141.738 30.3241 141.339 30.2504 140.938 30.2589C140.534 30.2565 140.133 30.3336 139.758 30.4856C139.384 30.6377 139.043 30.8617 138.757 31.1447C138.47 31.4278 138.243 31.7643 138.088 32.1348C137.934 32.5054 137.854 32.9026 137.856 33.3036V33.3036Z" fill="white"/>
<path d="M50.5766 11.5685C51.0975 11.5315 51.6203 11.6095 52.1071 11.7969C52.594 11.9843 53.0328 12.2764 53.3919 12.6522C53.751 13.028 54.0215 13.4781 54.1838 13.9701C54.3461 14.462 54.3963 14.9835 54.3306 15.497C54.3306 18.0227 52.953 19.4746 50.5766 19.4746H47.6948V11.5685H50.5766ZM48.934 18.3565H50.4382C50.8104 18.3786 51.1829 18.3181 51.5286 18.1795C51.8743 18.0409 52.1845 17.8276 52.4365 17.5552C52.6885 17.2829 52.8761 16.9582 52.9855 16.6049C53.095 16.2517 53.1236 15.8787 53.0692 15.5131C53.1196 15.1489 53.0882 14.7782 52.977 14.4275C52.8659 14.0769 52.6779 13.7549 52.4264 13.4847C52.1749 13.2145 51.8663 13.0027 51.5226 12.8646C51.1788 12.7265 50.8085 12.6654 50.4382 12.6858H48.934V18.3565Z" fill="white"/>
<path d="M55.7302 16.4888C55.6924 16.0967 55.7376 15.7011 55.8631 15.3273C55.9886 14.9536 56.1915 14.61 56.4588 14.3185C56.7262 14.027 57.052 13.7941 57.4155 13.6348C57.779 13.4754 58.1721 13.3931 58.5696 13.3931C58.967 13.3931 59.3601 13.4754 59.7236 13.6348C60.0871 13.7941 60.4129 14.027 60.6803 14.3185C60.9476 14.61 61.1505 14.9536 61.276 15.3273C61.4015 15.7011 61.4467 16.0967 61.4089 16.4888C61.4475 16.8813 61.4027 17.2774 61.2776 17.6518C61.1525 18.0261 60.9497 18.3704 60.6823 18.6624C60.4149 18.9545 60.0887 19.1878 59.7249 19.3475C59.361 19.5073 58.9675 19.5898 58.5696 19.5898C58.1716 19.5898 57.7781 19.5073 57.4142 19.3475C57.0504 19.1878 56.7243 18.9545 56.4569 18.6624C56.1895 18.3704 55.9867 18.0261 55.8615 17.6518C55.7364 17.2774 55.6917 16.8813 55.7302 16.4888ZM60.1867 16.4888C60.1867 15.1955 59.6004 14.4392 58.5715 14.4392C57.5387 14.4392 56.9577 15.1955 56.9577 16.4888C56.9577 17.7924 57.5387 18.5429 58.5715 18.5429C59.6004 18.5429 60.1867 17.7872 60.1867 16.4888H60.1867Z" fill="white"/>
<path d="M68.9574 19.4745H67.7248L66.4805 15.0803H66.3865L65.1473 19.4745H63.9264L62.2668 13.5081H63.472L64.5506 18.0608H64.6394L65.8772 13.5081H67.0171L68.255 18.0608H68.349L69.4223 13.5081H70.6105L68.9574 19.4745Z" fill="white"/>
<path d="M72.0064 13.5081H73.1502V14.4559H73.239C73.3896 14.1155 73.6436 13.8302 73.9657 13.6396C74.2878 13.4491 74.6618 13.3628 75.0357 13.393C75.3286 13.3711 75.6228 13.4149 75.8963 13.521C76.1699 13.6272 76.4159 13.7929 76.616 14.006C76.8161 14.2192 76.9653 14.4742 77.0525 14.7522C77.1397 15.0302 77.1626 15.3241 77.1196 15.6121V19.4744H75.9314V15.9078C75.9314 14.9489 75.511 14.4721 74.6322 14.4721C74.4333 14.4629 74.2347 14.4965 74.0501 14.5705C73.8656 14.6444 73.6993 14.7571 73.5627 14.9007C73.4262 15.0443 73.3226 15.2155 73.259 15.4025C73.1955 15.5895 73.1735 15.7879 73.1946 15.9841V19.4745H72.0063L72.0064 13.5081Z" fill="white"/>
<path d="M79.0129 11.179H80.2012V19.4745H79.0129V11.179Z" fill="white"/>
<path d="M81.853 16.4888C81.8152 16.0966 81.8605 15.701 81.986 15.3273C82.1115 14.9535 82.3144 14.6099 82.5818 14.3184C82.8491 14.0269 83.175 13.794 83.5385 13.6346C83.9021 13.4753 84.2952 13.3929 84.6927 13.3929C85.0901 13.3929 85.4833 13.4753 85.8468 13.6346C86.2103 13.794 86.5362 14.0269 86.8035 14.3184C87.0709 14.6099 87.2738 14.9535 87.3993 15.3273C87.5248 15.701 87.5701 16.0966 87.5323 16.4888C87.5708 16.8813 87.5261 17.2774 87.4009 17.6518C87.2757 18.0261 87.0729 18.3704 86.8054 18.6624C86.538 18.9544 86.2119 19.1878 85.848 19.3475C85.4842 19.5072 85.0906 19.5897 84.6927 19.5897C84.2947 19.5897 83.9011 19.5072 83.5373 19.3475C83.1734 19.1878 82.8473 18.9544 82.5799 18.6624C82.3124 18.3704 82.1096 18.0261 81.9844 17.6518C81.8592 17.2774 81.8145 16.8813 81.853 16.4888ZM86.3095 16.4888C86.3095 15.1955 85.7232 14.4392 84.6943 14.4392C83.6614 14.4392 83.0804 15.1955 83.0804 16.4888C83.0804 17.7924 83.6615 18.5429 84.6943 18.5429C85.7232 18.5429 86.3095 17.7872 86.3095 16.4888H86.3095Z" fill="white"/>
<path d="M88.7832 17.7872C88.7832 16.7133 89.5902 16.0941 91.0225 16.0061L92.6534 15.913V15.398C92.6534 14.7678 92.233 14.412 91.4208 14.412C90.7575 14.412 90.2979 14.6533 90.166 15.0751H89.0156C89.1371 14.0503 90.1098 13.393 91.4756 13.393C92.9851 13.393 93.8364 14.1377 93.8364 15.398V19.4745H92.6926V18.6361H92.5986C92.4078 18.9368 92.1398 19.182 91.8221 19.3466C91.5044 19.5112 91.1483 19.5893 90.7901 19.5728C90.5374 19.5989 90.2819 19.5722 90.0402 19.4944C89.7985 19.4166 89.576 19.2895 89.3869 19.1213C89.1978 18.9531 89.0464 18.7474 88.9424 18.5176C88.8384 18.2879 88.7842 18.0391 88.7832 17.7872ZM92.6534 17.2774V16.7786L91.1832 16.8718C90.354 16.9268 89.9779 17.2062 89.9779 17.7322C89.9779 18.2692 90.448 18.5817 91.0944 18.5817C91.2838 18.6007 91.4751 18.5818 91.657 18.526C91.8388 18.4702 92.0075 18.3788 92.1529 18.2571C92.2984 18.1354 92.4177 17.9859 92.5036 17.8176C92.5896 17.6493 92.6406 17.4656 92.6534 17.2774Z" fill="white"/>
<path d="M95.3979 16.4887C95.3979 14.6035 96.376 13.4091 97.8971 13.4091C98.2734 13.392 98.6468 13.4813 98.9738 13.6666C99.3007 13.852 99.5677 14.1258 99.7434 14.4559H99.8322V11.179H101.02V19.4745H99.8819V18.5319H99.7878C99.5985 18.8598 99.3223 19.1301 98.989 19.3136C98.6557 19.4971 98.2781 19.5867 97.8971 19.5728C96.3655 19.5729 95.3979 18.3785 95.3979 16.4887ZM96.6254 16.4887C96.6254 17.7542 97.2273 18.5157 98.2341 18.5157C99.2355 18.5157 99.8545 17.7432 99.8545 16.4939C99.8545 15.2504 99.229 14.467 98.2341 14.467C97.2338 14.467 96.6253 15.2336 96.6253 16.4887H96.6254Z" fill="white"/>
<path d="M105.937 16.4888C105.899 16.0967 105.944 15.7011 106.069 15.3273C106.195 14.9536 106.398 14.61 106.665 14.3185C106.932 14.027 107.258 13.7941 107.622 13.6348C107.985 13.4754 108.378 13.3931 108.776 13.3931C109.173 13.3931 109.566 13.4754 109.93 13.6348C110.293 13.7941 110.619 14.027 110.887 14.3185C111.154 14.61 111.357 14.9536 111.482 15.3273C111.608 15.7011 111.653 16.0967 111.615 16.4888C111.654 16.8813 111.609 17.2774 111.484 17.6518C111.359 18.0261 111.156 18.3704 110.889 18.6624C110.621 18.9545 110.295 19.1878 109.931 19.3475C109.567 19.5073 109.174 19.5898 108.776 19.5898C108.378 19.5898 107.984 19.5073 107.621 19.3475C107.257 19.1878 106.931 18.9545 106.663 18.6624C106.396 18.3704 106.193 18.0261 106.068 17.6518C105.943 17.2774 105.898 16.8813 105.937 16.4888ZM110.393 16.4888C110.393 15.1955 109.807 14.4392 108.778 14.4392C107.745 14.4392 107.164 15.1955 107.164 16.4888C107.164 17.7924 107.745 18.5429 108.778 18.5429C109.807 18.5429 110.393 17.7872 110.393 16.4888Z" fill="white"/>
<path d="M113.209 13.5081H114.353V14.4559H114.442C114.593 14.1155 114.847 13.8302 115.169 13.6396C115.491 13.4491 115.865 13.3628 116.239 13.393C116.532 13.3711 116.826 13.4149 117.099 13.521C117.373 13.6272 117.619 13.7929 117.819 14.006C118.019 14.2192 118.168 14.4742 118.256 14.7522C118.343 15.0302 118.366 15.3241 118.323 15.6121V19.4744H117.135V15.9078C117.135 14.9489 116.714 14.4721 115.835 14.4721C115.636 14.4629 115.438 14.4965 115.253 14.5705C115.069 14.6444 114.902 14.7571 114.766 14.9007C114.629 15.0443 114.526 15.2155 114.462 15.4025C114.399 15.5895 114.377 15.7879 114.398 15.9841V19.4745H113.209V13.5081Z" fill="white"/>
<path d="M125.037 12.0227V13.5353H126.341V14.5271H125.037V17.5951C125.037 18.2201 125.297 18.4937 125.888 18.4937C126.04 18.4932 126.191 18.4842 126.341 18.4665V19.4474C126.128 19.4852 125.912 19.5053 125.695 19.5075C124.374 19.5075 123.847 19.0469 123.847 17.8966V14.5271H122.892V13.5353H123.847V12.0227H125.037Z" fill="white"/>
<path d="M127.964 11.179H129.142V14.4669H129.236C129.394 14.1233 129.655 13.8364 129.984 13.6451C130.312 13.4538 130.692 13.3676 131.072 13.3981C131.363 13.3824 131.655 13.4306 131.925 13.5393C132.196 13.6481 132.439 13.8146 132.637 14.027C132.835 14.2395 132.983 14.4926 133.071 14.7684C133.159 15.0442 133.184 15.3358 133.145 15.6224V19.4745H131.956V15.9129C131.956 14.9599 131.508 14.4773 130.669 14.4773C130.464 14.4607 130.259 14.4885 130.067 14.5588C129.874 14.6291 129.7 14.7402 129.556 14.8842C129.411 15.0283 129.3 15.2019 129.231 15.3929C129.161 15.5839 129.134 15.7876 129.153 15.9899V19.4745H127.964L127.964 11.179Z" fill="white"/>
<path d="M140.074 17.8636C139.913 18.4088 139.563 18.8805 139.086 19.1961C138.609 19.5116 138.035 19.6509 137.465 19.5897C137.068 19.6001 136.674 19.5248 136.31 19.369C135.946 19.2133 135.62 18.9809 135.355 18.6879C135.091 18.3949 134.893 18.0483 134.777 17.6722C134.662 17.2962 134.63 16.8996 134.684 16.5101C134.631 16.1194 134.664 15.722 134.779 15.3448C134.895 14.9676 135.091 14.6194 135.354 14.3238C135.617 14.0283 135.942 13.7922 136.305 13.6316C136.668 13.471 137.062 13.3896 137.46 13.393C139.135 13.393 140.146 14.5272 140.146 16.4007V16.8116H135.894V16.8776C135.876 17.0965 135.903 17.3169 135.976 17.5246C136.048 17.7323 136.164 17.9227 136.315 18.0837C136.465 18.2446 136.649 18.3725 136.852 18.4591C137.056 18.5458 137.276 18.5893 137.498 18.5868C137.782 18.6206 138.07 18.5699 138.325 18.4411C138.58 18.3123 138.791 18.1113 138.93 17.8635L140.074 17.8636ZM135.894 15.9408H138.935C138.95 15.7405 138.923 15.5394 138.855 15.3503C138.787 15.1612 138.679 14.9883 138.54 14.8427C138.4 14.6972 138.231 14.5822 138.044 14.5051C137.857 14.428 137.656 14.3905 137.453 14.3951C137.248 14.3926 137.044 14.4308 136.853 14.5076C136.663 14.5844 136.49 14.6981 136.345 14.8422C136.2 14.9862 136.085 15.1576 136.008 15.3463C135.93 15.535 135.892 15.7371 135.894 15.9408H135.894Z" fill="white"/>
</g>
<defs>
<clipPath id="clip0">
<rect width="160" height="53" fill="white"/>
</clipPath>
</defs>
</svg>
